<svg width="394" height="75" viewBox="0 0 394 75" fill="none" xmlns="http://www.w3.org/2000/svg">
<path d="M156.5 48.6C157.767 48.6 158.4 50.2 158.4 53.4C158.4 56.6 157.8 59.4667 156.6 62C155.4 64.5333 153.933 66.5 152.2 67.9C150.533 69.3 148.633 70.4333 146.5 71.3C139.367 74.4333 132.7 74.3667 126.5 71.1C123.367 69.4333 120.967 67.4667 119.3 65.2C117.633 62.8667 116.3 60.1 115.3 56.9C113.767 52.1 113 47.0667 113 41.8C113 36.5333 113.5 31.6 114.5 27C115.5 22.4 117.033 18.0333 119.1 13.9C121.167 9.7 124.1 6.33333 127.9 3.8C131.7 1.26667 136.1 0 141.1 0C143.233 0 145.433 0.366667 147.7 1.1C150.033 1.76667 151.933 2.63334 153.4 3.7C154.867 4.7 156.167 6.26667 157.3 8.4C158.433 10.5333 159 13.0333 159 15.9C159 18.9667 158.267 21.7333 156.8 24.2C156.133 25.3333 155.067 26.3667 153.6 27.3C152.133 28.1667 150.4 28.6 148.4 28.6C145.333 28.6 143.167 27.2333 141.9 24.5C141.367 23.4333 141.1 22.2667 141.1 21C141.1 19.7333 141.533 19 142.4 18.8C143.333 18.5333 144.2 17.8 145 16.6C145.8 15.4 146.2 14 146.2 12.4C146.2 11.1333 145.867 10.0333 145.2 9.1C143.933 7.43333 142.1 6.6 139.7 6.6C137.3 6.6 135.1 7.7 133.1 9.9C131.167 12.1 129.7 14.8667 128.7 18.2C126.7 24.8667 125.7 31 125.7 36.6C125.7 42.2 126.467 46.7 128 50.1C129.867 54.3 132.233 57.1 135.1 58.5C136.9 59.3667 138.967 59.8 141.3 59.8C145.233 59.8 148.767 58.0333 151.9 54.5C153.233 53.1 154.333 51.4333 155.2 49.5C155.533 48.9 155.967 48.6 156.5 48.6Z" fill="#212121"/>
<path d="M173.186 33.8C171.453 33.8667 170.186 33.9333 169.386 34C168.653 34 168.286 33.8 168.286 33.4C168.286 33 168.486 32.6 168.886 32.2C173.153 28.2667 180.353 26.3 190.486 26.3C193.953 26.3 196.686 26.6 198.686 27.2L199.686 27.5C200.486 27.8333 200.886 28.2 200.886 28.6C200.886 28.9333 200.653 29.2 200.186 29.4C198.386 29.9333 196.653 30.8 194.986 32C193.319 33.1333 192.486 33.9333 192.486 34.4L193.086 35.1C195.219 36.3 196.853 38.2 197.986 40.8C199.186 43.4 199.853 45.7 199.986 47.7L200.186 50.8C200.186 57.4 198.353 62.8333 194.686 67.1C191.019 71.3667 186.019 73.5 179.686 73.5C176.486 73.5 173.719 72.9333 171.386 71.8C169.053 70.6667 167.319 69.4 166.186 68C165.119 66.5333 164.253 64.9 163.586 63.1C162.786 60.6333 162.386 58.1 162.386 55.5C162.386 52.8333 162.819 50.1667 163.686 47.5C164.619 44.8333 165.653 42.8667 166.786 41.6C167.986 40.3333 169.319 39.3 170.786 38.5C172.653 37.5 174.153 37 175.286 37C176.419 37 176.986 37.2333 176.986 37.7L176.386 38.7C174.919 40.4333 173.853 42.7 173.186 45.5C172.586 48.3 172.286 50.8 172.286 53C172.286 55.1333 172.553 57.2667 173.086 59.4C173.619 61.5333 174.219 63.1333 174.886 64.2C175.553 65.2 176.319 65.9667 177.186 66.5C178.453 67.3 179.786 67.7 181.186 67.7C182.586 67.7 183.953 67.1667 185.286 66.1C186.619 64.9667 187.586 63.5 188.186 61.7C189.386 58.3667 189.986 54.9333 189.986 51.4C189.986 45.8 188.553 41.4667 185.686 38.4C182.886 35.3333 178.719 33.8 173.186 33.8Z" fill="#212121"/>
<path d="M234.692 57.8C234.692 60.6667 234.126 63.1667 232.992 65.3C231.926 67.4333 230.692 69 229.292 70C227.892 71 226.226 71.8 224.292 72.4C221.759 73.2 219.459 73.6 217.392 73.6C213.059 73.6 209.459 72.7667 206.592 71.1C203.726 69.3667 202.292 66.6333 202.292 62.9C202.292 60.7 202.892 58.9 204.092 57.5C205.959 55.4333 208.192 54.4 210.792 54.4C211.592 54.4 211.992 54.7667 211.992 55.5C211.992 55.5667 211.826 56.1 211.492 57.1C211.226 58.0333 211.092 59.2333 211.092 60.7C211.092 62.1667 211.659 63.4667 212.792 64.6C213.992 65.7333 215.426 66.3 217.092 66.3C218.759 66.3 220.092 66.0333 221.092 65.5C222.092 64.9 222.792 64.1667 223.192 63.3C223.792 62.1 224.092 60.9667 224.092 59.9C224.092 57.9667 223.126 56.3 221.192 54.9C219.259 53.5 217.126 52.4 214.792 51.6C212.459 50.8 210.326 49.4667 208.392 47.6C206.459 45.7333 205.492 43.4 205.492 40.6C205.492 35.8 206.992 32.2 209.992 29.8C213.059 27.4 217.192 26.2 222.392 26.2C224.659 26.2 227.026 26.5333 229.492 27.2C232.026 27.8 233.292 28.8667 233.292 30.4C233.292 31.8667 233.026 33.2333 232.492 34.5C232.026 35.7667 231.426 36.4 230.692 36.4C230.292 36.4 230.026 36.2667 229.892 36C229.759 35.6667 229.526 35.3 229.192 34.9C228.859 34.5 228.059 34 226.792 33.4C225.526 32.7333 224.426 32.4 223.492 32.4C222.626 32.4 222.026 32.4333 221.692 32.5C221.426 32.5 220.926 32.6 220.192 32.8C219.459 32.9333 218.792 33.1667 218.192 33.5C216.659 34.3667 215.892 35.6333 215.892 37.3C215.892 38.3667 216.126 39.1667 216.592 39.7C217.059 40.1667 217.426 40.5333 217.692 40.8C217.959 41.0667 218.426 41.4 219.092 41.8C219.759 42.1333 220.226 42.3667 220.492 42.5C220.759 42.6333 221.359 42.9333 222.292 43.4C223.226 43.8 223.826 44.0667 224.092 44.2C231.159 47.5333 234.692 52.0667 234.692 57.8Z" fill="#212121"/>
<path d="M236.667 32.5L236.967 28.5C237.034 27.9 237.501 27.6 238.367 27.6H241.867L241.467 19.6V19.2C241.467 17.6667 242.634 16.2 244.967 14.8C247.301 13.4 249.434 12.7 251.367 12.7C251.967 12.7 252.267 12.9667 252.267 13.5V13.6C252.001 15.4 251.734 20.0333 251.467 27.5C254.401 27.5 256.267 27.4333 257.067 27.3C257.867 27.1667 258.301 27.1 258.367 27.1C258.834 27.1 259.067 27.5 259.067 28.3C259.067 29.1 258.701 30.1333 257.967 31.4C257.234 32.6 256.434 33.2333 255.567 33.3H251.367C251.301 35.5667 251.267 39.4 251.267 44.8C251.267 50.1333 251.301 54.5333 251.367 58C251.501 61.4667 251.634 64.1 251.767 65.9C251.901 67.6333 252.034 69.0333 252.167 70.1C252.367 71.1667 252.501 71.9333 252.567 72.4C252.701 72.8667 252.767 73.1667 252.767 73.3C252.767 73.9667 252.334 74.3333 251.467 74.4C248.867 74.4 246.267 74.0333 243.667 73.3C241.134 72.5667 239.867 71.3 239.867 69.5C241.267 58.3 241.967 46.2667 241.967 33.4C240.167 33.4 238.801 33.4667 237.867 33.6H237.767C237.167 33.6 236.801 33.2333 236.667 32.5Z" fill="#212121"/>
<path d="M295.43 27C294.23 34.2 293.63 43.3667 293.63 54.5C293.63 62.7 293.964 68.1 294.63 70.7L295.03 72C295.03 72.8667 294.297 73.3 292.83 73.3C287.697 73.3 284.764 71.8667 284.03 69C283.964 68.6667 283.797 68.5 283.53 68.5C283.33 68.5 283.13 68.6333 282.93 68.9C280.864 71.6333 277.664 73 273.33 73C270.93 73 268.43 72.4 265.83 71.2C264.23 70.4667 262.93 69.2 261.93 67.4C260.93 65.5333 260.43 63.2667 260.43 60.6L261.93 38.7C261.93 34.1 261.464 30.8333 260.53 28.9C260.197 28.1667 260.03 27.7 260.03 27.5C260.03 27.1 260.197 26.8333 260.53 26.7C261.597 26.3667 262.964 26.2 264.63 26.2C271.097 26.2 274.33 28.8667 274.33 34.2C274.33 35.8667 273.63 39.6667 272.23 45.6C270.897 51.5333 270.23 55.7667 270.23 58.3C270.23 60.7667 270.764 62.6667 271.83 64C272.964 65.3333 274.497 66 276.43 66C278.43 66 279.997 65.3 281.13 63.9C282.264 62.5 282.93 61.1 283.13 59.7L283.43 57.6C283.697 55.2667 283.83 51.1667 283.83 45.3C283.83 39.4333 283.63 35.7333 283.23 34.2C282.897 32.6 282.73 31.6 282.73 31.2C282.73 29.5333 284.064 28.2333 286.73 27.3C289.397 26.3 291.797 25.8 293.93 25.8C294.93 25.8 295.43 26.2 295.43 27Z" fill="#212121"/>
<path d="M322.365 72.1C323.298 67.4333 323.765 60.9 323.765 52.5C323.765 44.0333 323.732 39.0333 323.665 37.5C323.598 35.9667 323.132 34.7333 322.265 33.8C321.398 32.8667 320.632 32.3333 319.965 32.2C319.365 32.0667 318.498 32 317.365 32C316.232 32 315.132 32.5333 314.065 33.6C312.998 34.6 312.365 35.6333 312.165 36.7L311.765 38.3C311.565 40.3 311.465 44.7333 311.465 51.6C311.465 58.4667 311.598 62.8 311.865 64.6C312.198 66.3333 312.365 67.5 312.365 68.1C312.365 68.7 312.098 69.3 311.565 69.9C309.298 72.3 306.098 73.5 301.965 73.5C300.498 73.5 299.765 73.0667 299.765 72.2C301.098 64.2 301.765 54 301.765 41.6C301.765 37 301.665 33.9 301.465 32.3L301.065 29.1C300.998 28.3667 300.865 27.5667 300.665 26.7C300.665 25.9 301.698 25.5 303.765 25.5C306.832 25.5 308.865 26.6333 309.865 28.9C309.932 29.1667 310.065 29.3 310.265 29.3C310.465 29.3 310.932 29.0333 311.665 28.5C313.865 26.7667 316.832 25.9 320.565 25.9C322.698 25.9 324.798 26.3 326.865 27.1C328.932 27.9 330.365 28.9667 331.165 30.3C331.232 30.4333 331.332 30.5 331.465 30.5C331.598 30.5 331.798 30.3667 332.065 30.1C334.865 27.3 338.498 25.9 342.965 25.9C348.898 25.9 352.965 28.0333 355.165 32.3C355.965 33.9667 356.365 36.0667 356.365 38.6C356.365 41.1333 356.165 44.7333 355.765 49.4C355.365 54.0667 355.165 57.6333 355.165 60.1C355.165 62.5667 355.398 64.8 355.865 66.8C356.398 68.8 356.898 70.2333 357.365 71.1C357.898 71.9667 358.165 72.4667 358.165 72.6C358.165 73.4667 357.232 73.9 355.365 73.9C350.765 73.9 347.565 72.9667 345.765 71.1C343.965 69.2333 343.065 66.8 343.065 63.8C343.065 60.7333 343.665 56.6333 344.865 51.5C346.132 46.3 346.765 42.4 346.765 39.8C346.765 34.5333 344.632 31.9 340.365 31.9C338.565 31.9 337.132 32.4333 336.065 33.5C334.998 34.5667 334.365 35.6333 334.165 36.7L333.965 38.3C333.698 41.3667 333.565 45.0667 333.565 49.4C333.565 53.7333 333.632 57.1333 333.765 59.6C333.898 62 334.032 63.9 334.165 65.3C334.298 66.6333 334.365 67.4333 334.365 67.7C334.365 69.5667 333.198 71 330.865 72C328.532 73 326.265 73.5 324.065 73.5C322.932 73.5 322.365 73.0333 322.365 72.1Z" fill="#212121"/>
<path d="M370.484 46.1L370.584 48.6C370.584 49 370.85 49.2 371.384 49.2C373.517 49 375.384 48.4667 376.984 47.6C378.584 46.6667 379.784 45.6333 380.584 44.5C382.184 42.0333 383.05 39.9 383.184 38.1L383.284 36.9C383.284 33.3 381.85 31.5 378.984 31.5C376.85 31.5 375.117 32.4333 373.784 34.3C371.584 37.2333 370.484 41.1667 370.484 46.1ZM392.284 59.4C392.284 61.9333 391.75 64.1667 390.684 66.1C389.684 67.9667 388.517 69.3667 387.184 70.3C385.917 71.1667 384.417 71.8667 382.684 72.4C380.484 73.0667 378.384 73.4 376.384 73.4C370.784 73.4 366.65 71.3 363.984 67.1C361.317 62.9 359.984 57.5667 359.984 51.1C359.984 44.5667 361.617 38.7667 364.884 33.7C368.217 28.6333 373.184 26.1 379.784 26.1C385.784 26.1 389.85 28.2 391.984 32.4C392.85 34 393.284 35.5333 393.284 37C393.284 38.4 393.217 39.5333 393.084 40.4C392.95 41.2 392.484 42.4333 391.684 44.1C390.884 45.7667 389.817 47.2667 388.484 48.6C387.15 49.9333 385.05 51.2 382.184 52.4C379.317 53.6 375.95 54.4 372.084 54.8C371.55 54.8 371.284 55.0333 371.284 55.5C371.284 56.1 371.484 57 371.884 58.2C372.35 59.3333 372.85 60.3 373.384 61.1C374.85 62.9667 377.017 63.9 379.884 63.9C382.75 63.9 385.184 62.9667 387.184 61.1C388.25 60.1 389.117 58.8667 389.784 57.4C390.05 56.8667 390.384 56.6 390.784 56.6C391.25 56.6 391.617 56.9667 391.884 57.7C392.15 58.4333 392.284 59 392.284 59.4Z" fill="#212121"/>
<path d="M32 46C18.7452 46 -2.53988e-06 41.4706 -2.32261e-06 36.5C-2.10534e-06 31.5294 18.7452 27 32 27C45.2548 27 48 31.5294 48 36.5C48 41.4706 45.2548 46 32 46Z" fill="#FF3B3B"/>
<path d="M51.5 71C38.2452 71 19.5 66.4706 19.5 61.5C19.5 56.5294 38.2452 52 51.5 52C64.7548 52 67.5 56.5294 67.5 61.5C67.5 66.4706 64.7548 71 51.5 71Z" fill="#CF47FF"/>
<path d="M51.5 23C38.2452 23 19.5 18.4706 19.5 13.5C19.5 8.52943 38.2452 4 51.5 4C64.7548 4 67.5 8.52944 67.5 13.5C67.5 18.4706 64.7548 23 51.5 23Z" fill="#00A3FF"/>
<path d="M76 46C62.7452 46 44 41.4706 44 36.5C44 31.5294 62.7452 27 76 27C89.2548 27 92 31.5294 92 36.5C92 41.4706 89.2548 46 76 46Z" fill="#FFD600"/>
</svg>
